<?xml version="1.0" encoding="UTF-8" standalone="no"?>
<!DOCTYPE svg PUBLIC "-//W3C//DTD SVG 1.1//EN"
 "http://www.w3.org/Graphics/SVG/1.1/DTD/svg11.dtd">
<!-- Generated by graphviz version 2.26.3 (20100126.1600)
 -->
<!-- Title: controllers_diagram Pages: 1 -->
<svg width="655pt" height="644pt"
 viewBox="0.00 0.00 655.00 644.00" xmlns="http://www.w3.org/2000/svg" xmlns:xlink="http://www.w3.org/1999/xlink">
<g id="graph1" class="graph" transform="scale(1 1) rotate(0) translate(4 640)">
<title>controllers_diagram</title>
<polygon fill="white" stroke="white" points="-4,5 -4,-640 652,-640 652,5 -4,5"/>
<!-- _diagram_info -->
<g id="node1" class="node"><title>_diagram_info</title>
<text text-anchor="start" x="261" y="-81.3" font-family="Times,serif" font-size="13.00">Controllers diagram</text>
<text text-anchor="start" x="261" y="-67.3" font-family="Times,serif" font-size="13.00">Date: Feb 11 2011 &#45; 09:16</text>
<text text-anchor="start" x="261" y="-53.3" font-family="Times,serif" font-size="13.00">Migration version: 20110112004240</text>
<text text-anchor="start" x="261" y="-39.3" font-family="Times,serif" font-size="13.00">Generated by RailRoady 1.0.1</text>
<text text-anchor="start" x="261" y="-25.3" font-family="Times,serif" font-size="13.00">http://railroady.prestonlee.com</text>
</g>
<!-- ApplicationController -->
<g id="node2" class="node"><title>ApplicationController</title>
<polyline fill="none" stroke="black" points="391,-127.5 569,-127.5 "/>
<path fill="none" stroke="black" d="M569,-127.5C575,-127.5 581,-133.5 581,-139.5"/>
<polyline fill="none" stroke="black" points="581,-139.5 581,-223.5 "/>
<path fill="none" stroke="black" d="M581,-223.5C581,-229.5 575,-235.5 569,-235.5"/>
<polyline fill="none" stroke="black" points="569,-235.5 391,-235.5 "/>
<path fill="none" stroke="black" d="M391,-235.5C385,-235.5 379,-229.5 379,-223.5"/>
<polyline fill="none" stroke="black" points="379,-223.5 379,-139.5 "/>
<path fill="none" stroke="black" d="M379,-139.5C379,-133.5 385,-127.5 391,-127.5"/>
<text text-anchor="middle" x="480" y="-218.9" font-family="Times,serif" font-size="14.00">ApplicationController</text>
<polyline fill="none" stroke="black" points="379,-212.5 581,-212.5 "/>
<text text-anchor="start" x="387" y="-195.9" font-family="Times,serif" font-size="14.00">_one_time_conditions_valid_8?</text>
<polyline fill="none" stroke="black" points="379,-189.5 581,-189.5 "/>
<polyline fill="none" stroke="black" points="379,-165.5 581,-165.5 "/>
<text text-anchor="start" x="387" y="-148.9" font-family="Times,serif" font-size="14.00">_layout</text>
<text text-anchor="start" x="387" y="-133.9" font-family="Times,serif" font-size="14.00">_run_process_action_callbacks</text>
</g>
<!-- AttendancesController -->
<g id="node3" class="node"><title>AttendancesController</title>
<polyline fill="none" stroke="black" points="373,-361.5 495,-361.5 "/>
<path fill="none" stroke="black" d="M495,-361.5C501,-361.5 507,-367.5 507,-373.5"/>
<polyline fill="none" stroke="black" points="507,-373.5 507,-532.5 "/>
<path fill="none" stroke="black" d="M507,-532.5C507,-538.5 501,-544.5 495,-544.5"/>
<polyline fill="none" stroke="black" points="495,-544.5 373,-544.5 "/>
<path fill="none" stroke="black" d="M373,-544.5C367,-544.5 361,-538.5 361,-532.5"/>
<polyline fill="none" stroke="black" points="361,-532.5 361,-373.5 "/>
<path fill="none" stroke="black" d="M361,-373.5C361,-367.5 367,-361.5 373,-361.5"/>
<text text-anchor="middle" x="434" y="-527.9" font-family="Times,serif" font-size="14.00">AttendancesController</text>
<polyline fill="none" stroke="black" points="361,-521.5 507,-521.5 "/>
<text text-anchor="start" x="369" y="-504.9" font-family="Times,serif" font-size="14.00">create</text>
<text text-anchor="start" x="369" y="-489.9" font-family="Times,serif" font-size="14.00">destroy</text>
<text text-anchor="start" x="369" y="-474.9" font-family="Times,serif" font-size="14.00">edit</text>
<text text-anchor="start" x="369" y="-459.9" font-family="Times,serif" font-size="14.00">index</text>
<text text-anchor="start" x="369" y="-444.9" font-family="Times,serif" font-size="14.00">new</text>
<text text-anchor="start" x="369" y="-429.9" font-family="Times,serif" font-size="14.00">show</text>
<text text-anchor="start" x="369" y="-414.9" font-family="Times,serif" font-size="14.00">update</text>
<polyline fill="none" stroke="black" points="361,-408.5 507,-408.5 "/>
<polyline fill="none" stroke="black" points="361,-384.5 507,-384.5 "/>
<text text-anchor="start" x="369" y="-367.9" font-family="Times,serif" font-size="14.00">_layout</text>
</g>
<!-- HomeController -->
<g id="node4" class="node"><title>HomeController</title>
<polyline fill="none" stroke="black" points="499,-1.5 587,-1.5 "/>
<path fill="none" stroke="black" d="M587,-1.5C593,-1.5 599,-7.5 599,-13.5"/>
<polyline fill="none" stroke="black" points="599,-13.5 599,-82.5 "/>
<path fill="none" stroke="black" d="M599,-82.5C599,-88.5 593,-94.5 587,-94.5"/>
<polyline fill="none" stroke="black" points="587,-94.5 499,-94.5 "/>
<path fill="none" stroke="black" d="M499,-94.5C493,-94.5 487,-88.5 487,-82.5"/>
<polyline fill="none" stroke="black" points="487,-82.5 487,-13.5 "/>
<path fill="none" stroke="black" d="M487,-13.5C487,-7.5 493,-1.5 499,-1.5"/>
<text text-anchor="middle" x="543" y="-77.9" font-family="Times,serif" font-size="14.00">HomeController</text>
<polyline fill="none" stroke="black" points="487,-71.5 599,-71.5 "/>
<text text-anchor="start" x="495" y="-54.9" font-family="Times,serif" font-size="14.00">index</text>
<polyline fill="none" stroke="black" points="487,-48.5 599,-48.5 "/>
<polyline fill="none" stroke="black" points="487,-24.5 599,-24.5 "/>
<text text-anchor="start" x="495" y="-7.9" font-family="Times,serif" font-size="14.00">_layout</text>
</g>
<!-- LibrariesController -->
<g id="node5" class="node"><title>LibrariesController</title>
<polyline fill="none" stroke="black" points="211,-361.5 315,-361.5 "/>
<path fill="none" stroke="black" d="M315,-361.5C321,-361.5 327,-367.5 327,-373.5"/>
<polyline fill="none" stroke="black" points="327,-373.5 327,-532.5 "/>
<path fill="none" stroke="black" d="M327,-532.5C327,-538.5 321,-544.5 315,-544.5"/>
<polyline fill="none" stroke="black" points="315,-544.5 211,-544.5 "/>
<path fill="none" stroke="black" d="M211,-544.5C205,-544.5 199,-538.5 199,-532.5"/>
<polyline fill="none" stroke="black" points="199,-532.5 199,-373.5 "/>
<path fill="none" stroke="black" d="M199,-373.5C199,-367.5 205,-361.5 211,-361.5"/>
<text text-anchor="middle" x="263" y="-527.9" font-family="Times,serif" font-size="14.00">LibrariesController</text>
<polyline fill="none" stroke="black" points="199,-521.5 327,-521.5 "/>
<text text-anchor="start" x="207" y="-504.9" font-family="Times,serif" font-size="14.00">create</text>
<text text-anchor="start" x="207" y="-489.9" font-family="Times,serif" font-size="14.00">destroy</text>
<text text-anchor="start" x="207" y="-474.9" font-family="Times,serif" font-size="14.00">edit</text>
<text text-anchor="start" x="207" y="-459.9" font-family="Times,serif" font-size="14.00">index</text>
<text text-anchor="start" x="207" y="-444.9" font-family="Times,serif" font-size="14.00">new</text>
<text text-anchor="start" x="207" y="-429.9" font-family="Times,serif" font-size="14.00">show</text>
<text text-anchor="start" x="207" y="-414.9" font-family="Times,serif" font-size="14.00">update</text>
<polyline fill="none" stroke="black" points="199,-408.5 327,-408.5 "/>
<polyline fill="none" stroke="black" points="199,-384.5 327,-384.5 "/>
<text text-anchor="start" x="207" y="-367.9" font-family="Times,serif" font-size="14.00">_layout</text>
</g>
<!-- NotesController -->
<g id="node6" class="node"><title>NotesController</title>
<polyline fill="none" stroke="black" points="67,-451.5 153,-451.5 "/>
<path fill="none" stroke="black" d="M153,-451.5C159,-451.5 165,-457.5 165,-463.5"/>
<polyline fill="none" stroke="black" points="165,-463.5 165,-622.5 "/>
<path fill="none" stroke="black" d="M165,-622.5C165,-628.5 159,-634.5 153,-634.5"/>
<polyline fill="none" stroke="black" points="153,-634.5 67,-634.5 "/>
<path fill="none" stroke="black" d="M67,-634.5C61,-634.5 55,-628.5 55,-622.5"/>
<polyline fill="none" stroke="black" points="55,-622.5 55,-463.5 "/>
<path fill="none" stroke="black" d="M55,-463.5C55,-457.5 61,-451.5 67,-451.5"/>
<text text-anchor="middle" x="110" y="-617.9" font-family="Times,serif" font-size="14.00">NotesController</text>
<polyline fill="none" stroke="black" points="55,-611.5 165,-611.5 "/>
<text text-anchor="start" x="63" y="-594.9" font-family="Times,serif" font-size="14.00">create</text>
<text text-anchor="start" x="63" y="-579.9" font-family="Times,serif" font-size="14.00">destroy</text>
<text text-anchor="start" x="63" y="-564.9" font-family="Times,serif" font-size="14.00">edit</text>
<text text-anchor="start" x="63" y="-549.9" font-family="Times,serif" font-size="14.00">index</text>
<text text-anchor="start" x="63" y="-534.9" font-family="Times,serif" font-size="14.00">new</text>
<text text-anchor="start" x="63" y="-519.9" font-family="Times,serif" font-size="14.00">show</text>
<text text-anchor="start" x="63" y="-504.9" font-family="Times,serif" font-size="14.00">update</text>
<polyline fill="none" stroke="black" points="55,-498.5 165,-498.5 "/>
<polyline fill="none" stroke="black" points="55,-474.5 165,-474.5 "/>
<text text-anchor="start" x="63" y="-457.9" font-family="Times,serif" font-size="14.00">_layout</text>
</g>
<!-- RanksController -->
<g id="node7" class="node"><title>RanksController</title>
<polyline fill="none" stroke="black" points="31,-235.5 120,-235.5 "/>
<path fill="none" stroke="black" d="M120,-235.5C126,-235.5 132,-241.5 132,-247.5"/>
<polyline fill="none" stroke="black" points="132,-247.5 132,-406.5 "/>
<path fill="none" stroke="black" d="M132,-406.5C132,-412.5 126,-418.5 120,-418.5"/>
<polyline fill="none" stroke="black" points="120,-418.5 31,-418.5 "/>
<path fill="none" stroke="black" d="M31,-418.5C25,-418.5 19,-412.5 19,-406.5"/>
<polyline fill="none" stroke="black" points="19,-406.5 19,-247.5 "/>
<path fill="none" stroke="black" d="M19,-247.5C19,-241.5 25,-235.5 31,-235.5"/>
<text text-anchor="middle" x="75.5" y="-401.9" font-family="Times,serif" font-size="14.00">RanksController</text>
<polyline fill="none" stroke="black" points="19,-395.5 132,-395.5 "/>
<text text-anchor="start" x="27" y="-378.9" font-family="Times,serif" font-size="14.00">create</text>
<text text-anchor="start" x="27" y="-363.9" font-family="Times,serif" font-size="14.00">destroy</text>
<text text-anchor="start" x="27" y="-348.9" font-family="Times,serif" font-size="14.00">edit</text>
<text text-anchor="start" x="27" y="-333.9" font-family="Times,serif" font-size="14.00">index</text>
<text text-anchor="start" x="27" y="-318.9" font-family="Times,serif" font-size="14.00">new</text>
<text text-anchor="start" x="27" y="-303.9" font-family="Times,serif" font-size="14.00">show</text>
<text text-anchor="start" x="27" y="-288.9" font-family="Times,serif" font-size="14.00">update</text>
<polyline fill="none" stroke="black" points="19,-282.5 132,-282.5 "/>
<polyline fill="none" stroke="black" points="19,-258.5 132,-258.5 "/>
<text text-anchor="start" x="27" y="-241.9" font-family="Times,serif" font-size="14.00">_layout</text>
</g>
<!-- StudentsController -->
<g id="node8" class="node"><title>StudentsController</title>
<polyline fill="none" stroke="black" points="13,-19.5 115,-19.5 "/>
<path fill="none" stroke="black" d="M115,-19.5C121,-19.5 127,-25.5 127,-31.5"/>
<polyline fill="none" stroke="black" points="127,-31.5 127,-190.5 "/>
<path fill="none" stroke="black" d="M127,-190.5C127,-196.5 121,-202.5 115,-202.5"/>
<polyline fill="none" stroke="black" points="115,-202.5 13,-202.5 "/>
<path fill="none" stroke="black" d="M13,-202.5C7,-202.5 1,-196.5 1,-190.5"/>
<polyline fill="none" stroke="black" points="1,-190.5 1,-31.5 "/>
<path fill="none" stroke="black" d="M1,-31.5C1,-25.5 7,-19.5 13,-19.5"/>
<text text-anchor="middle" x="64" y="-185.9" font-family="Times,serif" font-size="14.00">StudentsController</text>
<polyline fill="none" stroke="black" points="1,-179.5 127,-179.5 "/>
<text text-anchor="start" x="9" y="-162.9" font-family="Times,serif" font-size="14.00">create</text>
<text text-anchor="start" x="9" y="-147.9" font-family="Times,serif" font-size="14.00">destroy</text>
<text text-anchor="start" x="9" y="-132.9" font-family="Times,serif" font-size="14.00">edit</text>
<text text-anchor="start" x="9" y="-117.9" font-family="Times,serif" font-size="14.00">index</text>
<text text-anchor="start" x="9" y="-102.9" font-family="Times,serif" font-size="14.00">new</text>
<text text-anchor="start" x="9" y="-87.9" font-family="Times,serif" font-size="14.00">show</text>
<text text-anchor="start" x="9" y="-72.9" font-family="Times,serif" font-size="14.00">update</text>
<polyline fill="none" stroke="black" points="1,-66.5 127,-66.5 "/>
<polyline fill="none" stroke="black" points="1,-42.5 127,-42.5 "/>
<text text-anchor="start" x="9" y="-25.9" font-family="Times,serif" font-size="14.00">_layout</text>
</g>
<!-- TestsController -->
<g id="node9" class="node"><title>TestsController</title>
<polyline fill="none" stroke="black" points="553,-271.5 634,-271.5 "/>
<path fill="none" stroke="black" d="M634,-271.5C640,-271.5 646,-277.5 646,-283.5"/>
<polyline fill="none" stroke="black" points="646,-283.5 646,-442.5 "/>
<path fill="none" stroke="black" d="M646,-442.5C646,-448.5 640,-454.5 634,-454.5"/>
<polyline fill="none" stroke="black" points="634,-454.5 553,-454.5 "/>
<path fill="none" stroke="black" d="M553,-454.5C547,-454.5 541,-448.5 541,-442.5"/>
<polyline fill="none" stroke="black" points="541,-442.5 541,-283.5 "/>
<path fill="none" stroke="black" d="M541,-283.5C541,-277.5 547,-271.5 553,-271.5"/>
<text text-anchor="middle" x="593.5" y="-437.9" font-family="Times,serif" font-size="14.00">TestsController</text>
<polyline fill="none" stroke="black" points="541,-431.5 646,-431.5 "/>
<text text-anchor="start" x="549" y="-414.9" font-family="Times,serif" font-size="14.00">create</text>
<text text-anchor="start" x="549" y="-399.9" font-family="Times,serif" font-size="14.00">destroy</text>
<text text-anchor="start" x="549" y="-384.9" font-family="Times,serif" font-size="14.00">edit</text>
<text text-anchor="start" x="549" y="-369.9" font-family="Times,serif" font-size="14.00">index</text>
<text text-anchor="start" x="549" y="-354.9" font-family="Times,serif" font-size="14.00">new</text>
<text text-anchor="start" x="549" y="-339.9" font-family="Times,serif" font-size="14.00">show</text>
<text text-anchor="start" x="549" y="-324.9" font-family="Times,serif" font-size="14.00">update</text>
<polyline fill="none" stroke="black" points="541,-318.5 646,-318.5 "/>
<polyline fill="none" stroke="black" points="541,-294.5 646,-294.5 "/>
<text text-anchor="start" x="549" y="-277.9" font-family="Times,serif" font-size="14.00">_layout</text>
</g>
<!-- YearEndReviewsController -->
<g id="node10" class="node"><title>YearEndReviewsController</title>
<polyline fill="none" stroke="black" points="175,-145.5 327,-145.5 "/>
<path fill="none" stroke="black" d="M327,-145.5C333,-145.5 339,-151.5 339,-157.5"/>
<polyline fill="none" stroke="black" points="339,-157.5 339,-316.5 "/>
<path fill="none" stroke="black" d="M339,-316.5C339,-322.5 333,-328.5 327,-328.5"/>
<polyline fill="none" stroke="black" points="327,-328.5 175,-328.5 "/>
<path fill="none" stroke="black" d="M175,-328.5C169,-328.5 163,-322.5 163,-316.5"/>
<polyline fill="none" stroke="black" points="163,-316.5 163,-157.5 "/>
<path fill="none" stroke="black" d="M163,-157.5C163,-151.5 169,-145.5 175,-145.5"/>
<text text-anchor="middle" x="251" y="-311.9" font-family="Times,serif" font-size="14.00">YearEndReviewsController</text>
<polyline fill="none" stroke="black" points="163,-305.5 339,-305.5 "/>
<text text-anchor="start" x="171" y="-288.9" font-family="Times,serif" font-size="14.00">create</text>
<text text-anchor="start" x="171" y="-273.9" font-family="Times,serif" font-size="14.00">destroy</text>
<text text-anchor="start" x="171" y="-258.9" font-family="Times,serif" font-size="14.00">edit</text>
<text text-anchor="start" x="171" y="-243.9" font-family="Times,serif" font-size="14.00">index</text>
<text text-anchor="start" x="171" y="-228.9" font-family="Times,serif" font-size="14.00">new</text>
<text text-anchor="start" x="171" y="-213.9" font-family="Times,serif" font-size="14.00">show</text>
<text text-anchor="start" x="171" y="-198.9" font-family="Times,serif" font-size="14.00">update</text>
<polyline fill="none" stroke="black" points="163,-192.5 339,-192.5 "/>
<polyline fill="none" stroke="black" points="163,-168.5 339,-168.5 "/>
<text text-anchor="start" x="171" y="-151.9" font-family="Times,serif" font-size="14.00">_layout</text>
</g>
</g>
</svg>
