<?xml version="1.0" encoding="UTF-8" standalone="no"?>
<!DOCTYPE svg PUBLIC "-//W3C//DTD SVG 1.1//EN"
 "http://www.w3.org/Graphics/SVG/1.1/DTD/svg11.dtd">
<!-- Generated by graphviz version 2.26.3 (20100126.1600)
 -->
<!-- Title: controllers_diagram Pages: 1 -->
<svg width="657pt" height="680pt"
 viewBox="0.00 0.00 657.00 680.00" xmlns="http://www.w3.org/2000/svg" xmlns:xlink="http://www.w3.org/1999/xlink">
<g id="graph1" class="graph" transform="scale(1 1) rotate(0) translate(4 676)">
<title>controllers_diagram</title>
<polygon fill="white" stroke="white" points="-4,5 -4,-676 654,-676 654,5 -4,5"/>
<!-- _diagram_info -->
<g id="node1" class="node"><title>_diagram_info</title>
<text text-anchor="start" x="27" y="-99.3" font-family="Times,serif" font-size="13.00">Controllers diagram</text>
<text text-anchor="start" x="27" y="-85.3" font-family="Times,serif" font-size="13.00">Date: May 01 2012 &#45; 00:14</text>
<text text-anchor="start" x="27" y="-71.3" font-family="Times,serif" font-size="13.00">Migration version: 20110920045543</text>
<text text-anchor="start" x="27" y="-57.3" font-family="Times,serif" font-size="13.00">Generated by RailRoady 1.0.7</text>
<text text-anchor="start" x="27" y="-43.3" font-family="Times,serif" font-size="13.00">http://railroady.prestonlee.com</text>
</g>
<!-- ApplicationController -->
<g id="node2" class="node"><title>ApplicationController</title>
<polyline fill="none" stroke="black" points="373,-127.5 549,-127.5 "/>
<path fill="none" stroke="black" d="M549,-127.5C555,-127.5 561,-133.5 561,-139.5"/>
<polyline fill="none" stroke="black" points="561,-139.5 561,-223.5 "/>
<path fill="none" stroke="black" d="M561,-223.5C561,-229.5 555,-235.5 549,-235.5"/>
<polyline fill="none" stroke="black" points="549,-235.5 373,-235.5 "/>
<path fill="none" stroke="black" d="M373,-235.5C367,-235.5 361,-229.5 361,-223.5"/>
<polyline fill="none" stroke="black" points="361,-223.5 361,-139.5 "/>
<path fill="none" stroke="black" d="M361,-139.5C361,-133.5 367,-127.5 373,-127.5"/>
<text text-anchor="middle" x="461" y="-218.9" font-family="Times,serif" font-size="14.00">ApplicationController</text>
<polyline fill="none" stroke="black" points="361,-212.5 561,-212.5 "/>
<text text-anchor="start" x="369" y="-195.9" font-family="Times,serif" font-size="14.00">_one_time_conditions_valid_8?</text>
<polyline fill="none" stroke="black" points="361,-189.5 561,-189.5 "/>
<polyline fill="none" stroke="black" points="361,-165.5 561,-165.5 "/>
<text text-anchor="start" x="369" y="-148.9" font-family="Times,serif" font-size="14.00">_layout</text>
<text text-anchor="start" x="369" y="-133.9" font-family="Times,serif" font-size="14.00">_run_process_action_callbacks</text>
</g>
<!-- AttendancesController -->
<g id="node3" class="node"><title>AttendancesController</title>
<polyline fill="none" stroke="black" points="355,-361.5 478,-361.5 "/>
<path fill="none" stroke="black" d="M478,-361.5C484,-361.5 490,-367.5 490,-373.5"/>
<polyline fill="none" stroke="black" points="490,-373.5 490,-532.5 "/>
<path fill="none" stroke="black" d="M490,-532.5C490,-538.5 484,-544.5 478,-544.5"/>
<polyline fill="none" stroke="black" points="478,-544.5 355,-544.5 "/>
<path fill="none" stroke="black" d="M355,-544.5C349,-544.5 343,-538.5 343,-532.5"/>
<polyline fill="none" stroke="black" points="343,-532.5 343,-373.5 "/>
<path fill="none" stroke="black" d="M343,-373.5C343,-367.5 349,-361.5 355,-361.5"/>
<text text-anchor="middle" x="416.5" y="-527.9" font-family="Times,serif" font-size="14.00">AttendancesController</text>
<polyline fill="none" stroke="black" points="343,-521.5 490,-521.5 "/>
<text text-anchor="start" x="351" y="-504.9" font-family="Times,serif" font-size="14.00">create</text>
<text text-anchor="start" x="351" y="-489.9" font-family="Times,serif" font-size="14.00">destroy</text>
<text text-anchor="start" x="351" y="-474.9" font-family="Times,serif" font-size="14.00">edit</text>
<text text-anchor="start" x="351" y="-459.9" font-family="Times,serif" font-size="14.00">index</text>
<text text-anchor="start" x="351" y="-444.9" font-family="Times,serif" font-size="14.00">new</text>
<text text-anchor="start" x="351" y="-429.9" font-family="Times,serif" font-size="14.00">show</text>
<text text-anchor="start" x="351" y="-414.9" font-family="Times,serif" font-size="14.00">update</text>
<polyline fill="none" stroke="black" points="343,-408.5 490,-408.5 "/>
<polyline fill="none" stroke="black" points="343,-384.5 490,-384.5 "/>
<text text-anchor="start" x="351" y="-367.9" font-family="Times,serif" font-size="14.00">_layout</text>
</g>
<!-- HomeController -->
<g id="node4" class="node"><title>HomeController</title>
<polyline fill="none" stroke="black" points="283,-1.5 372,-1.5 "/>
<path fill="none" stroke="black" d="M372,-1.5C378,-1.5 384,-7.5 384,-13.5"/>
<polyline fill="none" stroke="black" points="384,-13.5 384,-82.5 "/>
<path fill="none" stroke="black" d="M384,-82.5C384,-88.5 378,-94.5 372,-94.5"/>
<polyline fill="none" stroke="black" points="372,-94.5 283,-94.5 "/>
<path fill="none" stroke="black" d="M283,-94.5C277,-94.5 271,-88.5 271,-82.5"/>
<polyline fill="none" stroke="black" points="271,-82.5 271,-13.5 "/>
<path fill="none" stroke="black" d="M271,-13.5C271,-7.5 277,-1.5 283,-1.5"/>
<text text-anchor="middle" x="327.5" y="-77.9" font-family="Times,serif" font-size="14.00">HomeController</text>
<polyline fill="none" stroke="black" points="271,-71.5 384,-71.5 "/>
<text text-anchor="start" x="279" y="-54.9" font-family="Times,serif" font-size="14.00">index</text>
<polyline fill="none" stroke="black" points="271,-48.5 384,-48.5 "/>
<polyline fill="none" stroke="black" points="271,-24.5 384,-24.5 "/>
<text text-anchor="start" x="279" y="-7.9" font-family="Times,serif" font-size="14.00">_layout</text>
</g>
<!-- LibrariesController -->
<g id="node5" class="node"><title>LibrariesController</title>
<polyline fill="none" stroke="black" points="193,-361.5 297,-361.5 "/>
<path fill="none" stroke="black" d="M297,-361.5C303,-361.5 309,-367.5 309,-373.5"/>
<polyline fill="none" stroke="black" points="309,-373.5 309,-532.5 "/>
<path fill="none" stroke="black" d="M309,-532.5C309,-538.5 303,-544.5 297,-544.5"/>
<polyline fill="none" stroke="black" points="297,-544.5 193,-544.5 "/>
<path fill="none" stroke="black" d="M193,-544.5C187,-544.5 181,-538.5 181,-532.5"/>
<polyline fill="none" stroke="black" points="181,-532.5 181,-373.5 "/>
<path fill="none" stroke="black" d="M181,-373.5C181,-367.5 187,-361.5 193,-361.5"/>
<text text-anchor="middle" x="245" y="-527.9" font-family="Times,serif" font-size="14.00">LibrariesController</text>
<polyline fill="none" stroke="black" points="181,-521.5 309,-521.5 "/>
<text text-anchor="start" x="189" y="-504.9" font-family="Times,serif" font-size="14.00">create</text>
<text text-anchor="start" x="189" y="-489.9" font-family="Times,serif" font-size="14.00">destroy</text>
<text text-anchor="start" x="189" y="-474.9" font-family="Times,serif" font-size="14.00">edit</text>
<text text-anchor="start" x="189" y="-459.9" font-family="Times,serif" font-size="14.00">index</text>
<text text-anchor="start" x="189" y="-444.9" font-family="Times,serif" font-size="14.00">new</text>
<text text-anchor="start" x="189" y="-429.9" font-family="Times,serif" font-size="14.00">show</text>
<text text-anchor="start" x="189" y="-414.9" font-family="Times,serif" font-size="14.00">update</text>
<polyline fill="none" stroke="black" points="181,-408.5 309,-408.5 "/>
<polyline fill="none" stroke="black" points="181,-384.5 309,-384.5 "/>
<text text-anchor="start" x="189" y="-367.9" font-family="Times,serif" font-size="14.00">_layout</text>
</g>
<!-- NotesController -->
<g id="node6" class="node"><title>NotesController</title>
<polyline fill="none" stroke="black" points="49,-451.5 135,-451.5 "/>
<path fill="none" stroke="black" d="M135,-451.5C141,-451.5 147,-457.5 147,-463.5"/>
<polyline fill="none" stroke="black" points="147,-463.5 147,-622.5 "/>
<path fill="none" stroke="black" d="M147,-622.5C147,-628.5 141,-634.5 135,-634.5"/>
<polyline fill="none" stroke="black" points="135,-634.5 49,-634.5 "/>
<path fill="none" stroke="black" d="M49,-634.5C43,-634.5 37,-628.5 37,-622.5"/>
<polyline fill="none" stroke="black" points="37,-622.5 37,-463.5 "/>
<path fill="none" stroke="black" d="M37,-463.5C37,-457.5 43,-451.5 49,-451.5"/>
<text text-anchor="middle" x="92" y="-617.9" font-family="Times,serif" font-size="14.00">NotesController</text>
<polyline fill="none" stroke="black" points="37,-611.5 147,-611.5 "/>
<text text-anchor="start" x="45" y="-594.9" font-family="Times,serif" font-size="14.00">create</text>
<text text-anchor="start" x="45" y="-579.9" font-family="Times,serif" font-size="14.00">destroy</text>
<text text-anchor="start" x="45" y="-564.9" font-family="Times,serif" font-size="14.00">edit</text>
<text text-anchor="start" x="45" y="-549.9" font-family="Times,serif" font-size="14.00">index</text>
<text text-anchor="start" x="45" y="-534.9" font-family="Times,serif" font-size="14.00">new</text>
<text text-anchor="start" x="45" y="-519.9" font-family="Times,serif" font-size="14.00">show</text>
<text text-anchor="start" x="45" y="-504.9" font-family="Times,serif" font-size="14.00">update</text>
<polyline fill="none" stroke="black" points="37,-498.5 147,-498.5 "/>
<polyline fill="none" stroke="black" points="37,-474.5 147,-474.5 "/>
<text text-anchor="start" x="45" y="-457.9" font-family="Times,serif" font-size="14.00">_layout</text>
</g>
<!-- RanksController -->
<g id="node7" class="node"><title>RanksController</title>
<polyline fill="none" stroke="black" points="13,-235.5 99,-235.5 "/>
<path fill="none" stroke="black" d="M99,-235.5C105,-235.5 111,-241.5 111,-247.5"/>
<polyline fill="none" stroke="black" points="111,-247.5 111,-406.5 "/>
<path fill="none" stroke="black" d="M111,-406.5C111,-412.5 105,-418.5 99,-418.5"/>
<polyline fill="none" stroke="black" points="99,-418.5 13,-418.5 "/>
<path fill="none" stroke="black" d="M13,-418.5C7,-418.5 1,-412.5 1,-406.5"/>
<polyline fill="none" stroke="black" points="1,-406.5 1,-247.5 "/>
<path fill="none" stroke="black" d="M1,-247.5C1,-241.5 7,-235.5 13,-235.5"/>
<text text-anchor="middle" x="56" y="-401.9" font-family="Times,serif" font-size="14.00">RanksController</text>
<polyline fill="none" stroke="black" points="1,-395.5 111,-395.5 "/>
<text text-anchor="start" x="9" y="-378.9" font-family="Times,serif" font-size="14.00">create</text>
<text text-anchor="start" x="9" y="-363.9" font-family="Times,serif" font-size="14.00">destroy</text>
<text text-anchor="start" x="9" y="-348.9" font-family="Times,serif" font-size="14.00">edit</text>
<text text-anchor="start" x="9" y="-333.9" font-family="Times,serif" font-size="14.00">index</text>
<text text-anchor="start" x="9" y="-318.9" font-family="Times,serif" font-size="14.00">new</text>
<text text-anchor="start" x="9" y="-303.9" font-family="Times,serif" font-size="14.00">show</text>
<text text-anchor="start" x="9" y="-288.9" font-family="Times,serif" font-size="14.00">update</text>
<polyline fill="none" stroke="black" points="1,-282.5 111,-282.5 "/>
<polyline fill="none" stroke="black" points="1,-258.5 111,-258.5 "/>
<text text-anchor="start" x="9" y="-241.9" font-family="Times,serif" font-size="14.00">_layout</text>
</g>
<!-- StudentsController -->
<g id="node8" class="node"><title>StudentsController</title>
<polyline fill="none" stroke="black" points="535,-271.5 636,-271.5 "/>
<path fill="none" stroke="black" d="M636,-271.5C642,-271.5 648,-277.5 648,-283.5"/>
<polyline fill="none" stroke="black" points="648,-283.5 648,-442.5 "/>
<path fill="none" stroke="black" d="M648,-442.5C648,-448.5 642,-454.5 636,-454.5"/>
<polyline fill="none" stroke="black" points="636,-454.5 535,-454.5 "/>
<path fill="none" stroke="black" d="M535,-454.5C529,-454.5 523,-448.5 523,-442.5"/>
<polyline fill="none" stroke="black" points="523,-442.5 523,-283.5 "/>
<path fill="none" stroke="black" d="M523,-283.5C523,-277.5 529,-271.5 535,-271.5"/>
<text text-anchor="middle" x="585.5" y="-437.9" font-family="Times,serif" font-size="14.00">StudentsController</text>
<polyline fill="none" stroke="black" points="523,-431.5 648,-431.5 "/>
<text text-anchor="start" x="531" y="-414.9" font-family="Times,serif" font-size="14.00">create</text>
<text text-anchor="start" x="531" y="-399.9" font-family="Times,serif" font-size="14.00">destroy</text>
<text text-anchor="start" x="531" y="-384.9" font-family="Times,serif" font-size="14.00">edit</text>
<text text-anchor="start" x="531" y="-369.9" font-family="Times,serif" font-size="14.00">index</text>
<text text-anchor="start" x="531" y="-354.9" font-family="Times,serif" font-size="14.00">new</text>
<text text-anchor="start" x="531" y="-339.9" font-family="Times,serif" font-size="14.00">show</text>
<text text-anchor="start" x="531" y="-324.9" font-family="Times,serif" font-size="14.00">update</text>
<polyline fill="none" stroke="black" points="523,-318.5 648,-318.5 "/>
<polyline fill="none" stroke="black" points="523,-294.5 648,-294.5 "/>
<text text-anchor="start" x="531" y="-277.9" font-family="Times,serif" font-size="14.00">_layout</text>
</g>
<!-- TestsController -->
<g id="node9" class="node"><title>TestsController</title>
<polyline fill="none" stroke="black" points="535,-487.5 618,-487.5 "/>
<path fill="none" stroke="black" d="M618,-487.5C624,-487.5 630,-493.5 630,-499.5"/>
<polyline fill="none" stroke="black" points="630,-499.5 630,-658.5 "/>
<path fill="none" stroke="black" d="M630,-658.5C630,-664.5 624,-670.5 618,-670.5"/>
<polyline fill="none" stroke="black" points="618,-670.5 535,-670.5 "/>
<path fill="none" stroke="black" d="M535,-670.5C529,-670.5 523,-664.5 523,-658.5"/>
<polyline fill="none" stroke="black" points="523,-658.5 523,-499.5 "/>
<path fill="none" stroke="black" d="M523,-499.5C523,-493.5 529,-487.5 535,-487.5"/>
<text text-anchor="middle" x="576.5" y="-653.9" font-family="Times,serif" font-size="14.00">TestsController</text>
<polyline fill="none" stroke="black" points="523,-647.5 630,-647.5 "/>
<text text-anchor="start" x="531" y="-630.9" font-family="Times,serif" font-size="14.00">create</text>
<text text-anchor="start" x="531" y="-615.9" font-family="Times,serif" font-size="14.00">destroy</text>
<text text-anchor="start" x="531" y="-600.9" font-family="Times,serif" font-size="14.00">edit</text>
<text text-anchor="start" x="531" y="-585.9" font-family="Times,serif" font-size="14.00">index</text>
<text text-anchor="start" x="531" y="-570.9" font-family="Times,serif" font-size="14.00">new</text>
<text text-anchor="start" x="531" y="-555.9" font-family="Times,serif" font-size="14.00">show</text>
<text text-anchor="start" x="531" y="-540.9" font-family="Times,serif" font-size="14.00">update</text>
<polyline fill="none" stroke="black" points="523,-534.5 630,-534.5 "/>
<polyline fill="none" stroke="black" points="523,-510.5 630,-510.5 "/>
<text text-anchor="start" x="531" y="-493.9" font-family="Times,serif" font-size="14.00">_layout</text>
</g>
<!-- YearEndReviewsController -->
<g id="node10" class="node"><title>YearEndReviewsController</title>
<polyline fill="none" stroke="black" points="157,-145.5 309,-145.5 "/>
<path fill="none" stroke="black" d="M309,-145.5C315,-145.5 321,-151.5 321,-157.5"/>
<polyline fill="none" stroke="black" points="321,-157.5 321,-316.5 "/>
<path fill="none" stroke="black" d="M321,-316.5C321,-322.5 315,-328.5 309,-328.5"/>
<polyline fill="none" stroke="black" points="309,-328.5 157,-328.5 "/>
<path fill="none" stroke="black" d="M157,-328.5C151,-328.5 145,-322.5 145,-316.5"/>
<polyline fill="none" stroke="black" points="145,-316.5 145,-157.5 "/>
<path fill="none" stroke="black" d="M145,-157.5C145,-151.5 151,-145.5 157,-145.5"/>
<text text-anchor="middle" x="233" y="-311.9" font-family="Times,serif" font-size="14.00">YearEndReviewsController</text>
<polyline fill="none" stroke="black" points="145,-305.5 321,-305.5 "/>
<text text-anchor="start" x="153" y="-288.9" font-family="Times,serif" font-size="14.00">create</text>
<text text-anchor="start" x="153" y="-273.9" font-family="Times,serif" font-size="14.00">destroy</text>
<text text-anchor="start" x="153" y="-258.9" font-family="Times,serif" font-size="14.00">edit</text>
<text text-anchor="start" x="153" y="-243.9" font-family="Times,serif" font-size="14.00">index</text>
<text text-anchor="start" x="153" y="-228.9" font-family="Times,serif" font-size="14.00">new</text>
<text text-anchor="start" x="153" y="-213.9" font-family="Times,serif" font-size="14.00">show</text>
<text text-anchor="start" x="153" y="-198.9" font-family="Times,serif" font-size="14.00">update</text>
<polyline fill="none" stroke="black" points="145,-192.5 321,-192.5 "/>
<polyline fill="none" stroke="black" points="145,-168.5 321,-168.5 "/>
<text text-anchor="start" x="153" y="-151.9" font-family="Times,serif" font-size="14.00">_layout</text>
</g>
</g>
</svg>
