<?xml version="1.0" encoding="UTF-8" standalone="no"?>
<!DOCTYPE svg PUBLIC "-//W3C//DTD SVG 1.1//EN"
 "http://www.w3.org/Graphics/SVG/1.1/DTD/svg11.dtd">
<!-- Generated by graphviz version 2.26.3 (20100126.1600)
 -->
<!-- Title: models_diagram Pages: 1 -->
<svg width="870pt" height="568pt"
 viewBox="0.00 0.00 870.00 568.00" xmlns="http://www.w3.org/2000/svg" xmlns:xlink="http://www.w3.org/1999/xlink">
<g id="graph1" class="graph" transform="scale(1 1) rotate(0) translate(4 564)">
<title>models_diagram</title>
<polygon fill="white" stroke="white" points="-4,5 -4,-564 867,-564 867,5 -4,5"/>
<!-- _diagram_info -->
<g id="node1" class="node"><title>_diagram_info</title>
<text text-anchor="start" x="8" y="-522.3" font-family="Times,serif" font-size="13.00">Models diagram</text>
<text text-anchor="start" x="8" y="-508.3" font-family="Times,serif" font-size="13.00">Date: May 01 2012 &#45; 00:13</text>
<text text-anchor="start" x="8" y="-494.3" font-family="Times,serif" font-size="13.00">Migration version: 20110920045543</text>
<text text-anchor="start" x="8" y="-480.3" font-family="Times,serif" font-size="13.00">Generated by RailRoady 1.0.7</text>
<text text-anchor="start" x="8" y="-466.3" font-family="Times,serif" font-size="13.00">http://railroady.prestonlee.com</text>
</g>
<!-- Attendance -->
<g id="node2" class="node"><title>Attendance</title>
<polyline fill="none" stroke="black" points="247.5,-461 358.5,-461 "/>
<path fill="none" stroke="black" d="M358.5,-461C364.5,-461 370.5,-467 370.5,-473"/>
<polyline fill="none" stroke="black" points="370.5,-473 370.5,-525 "/>
<path fill="none" stroke="black" d="M370.5,-525C370.5,-531 364.5,-537 358.5,-537"/>
<polyline fill="none" stroke="black" points="358.5,-537 247.5,-537 "/>
<path fill="none" stroke="black" d="M247.5,-537C241.5,-537 235.5,-531 235.5,-525"/>
<polyline fill="none" stroke="black" points="235.5,-525 235.5,-473 "/>
<path fill="none" stroke="black" d="M235.5,-473C235.5,-467 241.5,-461 247.5,-461"/>
<text text-anchor="middle" x="303" y="-520.4" font-family="Times,serif" font-size="14.00">Attendance</text>
<polyline fill="none" stroke="black" points="235.5,-514 370.5,-514 "/>
<text text-anchor="start" x="243.5" y="-497.4" font-family="Times,serif" font-size="14.00">date :date</text>
<text text-anchor="start" x="243.5" y="-482.4" font-family="Times,serif" font-size="14.00">created_at :datetime</text>
<text text-anchor="start" x="243.5" y="-467.4" font-family="Times,serif" font-size="14.00">updated_at :datetime</text>
</g>
<!-- Library -->
<g id="node3" class="node"><title>Library</title>
<polyline fill="none" stroke="black" points="399.5,-461 510.5,-461 "/>
<path fill="none" stroke="black" d="M510.5,-461C516.5,-461 522.5,-467 522.5,-473"/>
<polyline fill="none" stroke="black" points="522.5,-473 522.5,-525 "/>
<path fill="none" stroke="black" d="M522.5,-525C522.5,-531 516.5,-537 510.5,-537"/>
<polyline fill="none" stroke="black" points="510.5,-537 399.5,-537 "/>
<path fill="none" stroke="black" d="M399.5,-537C393.5,-537 387.5,-531 387.5,-525"/>
<polyline fill="none" stroke="black" points="387.5,-525 387.5,-473 "/>
<path fill="none" stroke="black" d="M387.5,-473C387.5,-467 393.5,-461 399.5,-461"/>
<text text-anchor="middle" x="455" y="-520.4" font-family="Times,serif" font-size="14.00">Library</text>
<polyline fill="none" stroke="black" points="387.5,-514 522.5,-514 "/>
<text text-anchor="start" x="395.5" y="-497.4" font-family="Times,serif" font-size="14.00">item :string</text>
<text text-anchor="start" x="395.5" y="-482.4" font-family="Times,serif" font-size="14.00">created_at :datetime</text>
<text text-anchor="start" x="395.5" y="-467.4" font-family="Times,serif" font-size="14.00">updated_at :datetime</text>
</g>
<!-- Note -->
<g id="node4" class="node"><title>Note</title>
<polyline fill="none" stroke="black" points="493.5,-1 604.5,-1 "/>
<path fill="none" stroke="black" d="M604.5,-1C610.5,-1 616.5,-7 616.5,-13"/>
<polyline fill="none" stroke="black" points="616.5,-13 616.5,-65 "/>
<path fill="none" stroke="black" d="M616.5,-65C616.5,-71 610.5,-77 604.5,-77"/>
<polyline fill="none" stroke="black" points="604.5,-77 493.5,-77 "/>
<path fill="none" stroke="black" d="M493.5,-77C487.5,-77 481.5,-71 481.5,-65"/>
<polyline fill="none" stroke="black" points="481.5,-65 481.5,-13 "/>
<path fill="none" stroke="black" d="M481.5,-13C481.5,-7 487.5,-1 493.5,-1"/>
<text text-anchor="middle" x="549" y="-60.4" font-family="Times,serif" font-size="14.00">Note</text>
<polyline fill="none" stroke="black" points="481.5,-54 616.5,-54 "/>
<text text-anchor="start" x="489.5" y="-37.4" font-family="Times,serif" font-size="14.00">note :text</text>
<text text-anchor="start" x="489.5" y="-22.4" font-family="Times,serif" font-size="14.00">created_at :datetime</text>
<text text-anchor="start" x="489.5" y="-7.4" font-family="Times,serif" font-size="14.00">updated_at :datetime</text>
</g>
<!-- Rank -->
<g id="node5" class="node"><title>Rank</title>
<polyline fill="none" stroke="black" points="552,-438.5 698,-438.5 "/>
<path fill="none" stroke="black" d="M698,-438.5C704,-438.5 710,-444.5 710,-450.5"/>
<polyline fill="none" stroke="black" points="710,-450.5 710,-547.5 "/>
<path fill="none" stroke="black" d="M710,-547.5C710,-553.5 704,-559.5 698,-559.5"/>
<polyline fill="none" stroke="black" points="698,-559.5 552,-559.5 "/>
<path fill="none" stroke="black" d="M552,-559.5C546,-559.5 540,-553.5 540,-547.5"/>
<polyline fill="none" stroke="black" points="540,-547.5 540,-450.5 "/>
<path fill="none" stroke="black" d="M540,-450.5C540,-444.5 546,-438.5 552,-438.5"/>
<text text-anchor="middle" x="625" y="-542.9" font-family="Times,serif" font-size="14.00">Rank</text>
<polyline fill="none" stroke="black" points="540,-536.5 710,-536.5 "/>
<text text-anchor="start" x="548" y="-519.9" font-family="Times,serif" font-size="14.00">order :integer</text>
<text text-anchor="start" x="548" y="-504.9" font-family="Times,serif" font-size="14.00">name :string</text>
<text text-anchor="start" x="548" y="-489.9" font-family="Times,serif" font-size="14.00">days_required :integer</text>
<text text-anchor="start" x="548" y="-474.9" font-family="Times,serif" font-size="14.00">created_at :datetime</text>
<text text-anchor="start" x="548" y="-459.9" font-family="Times,serif" font-size="14.00">updated_at :datetime</text>
<text text-anchor="start" x="548" y="-444.9" font-family="Times,serif" font-size="14.00">cal_days_required :integer</text>
</g>
<!-- Student -->
<g id="node6" class="node"><title>Student</title>
<polyline fill="none" stroke="black" points="548,-115 702,-115 "/>
<path fill="none" stroke="black" d="M702,-115C708,-115 714,-121 714,-127"/>
<polyline fill="none" stroke="black" points="714,-127 714,-389 "/>
<path fill="none" stroke="black" d="M714,-389C714,-395 708,-401 702,-401"/>
<polyline fill="none" stroke="black" points="702,-401 548,-401 "/>
<path fill="none" stroke="black" d="M548,-401C542,-401 536,-395 536,-389"/>
<polyline fill="none" stroke="black" points="536,-389 536,-127 "/>
<path fill="none" stroke="black" d="M536,-127C536,-121 542,-115 548,-115"/>
<text text-anchor="middle" x="625" y="-384.4" font-family="Times,serif" font-size="14.00">Student</text>
<polyline fill="none" stroke="black" points="536,-378 714,-378 "/>
<text text-anchor="start" x="544" y="-361.4" font-family="Times,serif" font-size="14.00">firstname :string</text>
<text text-anchor="start" x="544" y="-346.4" font-family="Times,serif" font-size="14.00">middlename :string</text>
<text text-anchor="start" x="544" y="-331.4" font-family="Times,serif" font-size="14.00">lastname :string</text>
<text text-anchor="start" x="544" y="-316.4" font-family="Times,serif" font-size="14.00">address1 :string</text>
<text text-anchor="start" x="544" y="-301.4" font-family="Times,serif" font-size="14.00">address2 :string</text>
<text text-anchor="start" x="544" y="-286.4" font-family="Times,serif" font-size="14.00">address3 :string</text>
<text text-anchor="start" x="544" y="-271.4" font-family="Times,serif" font-size="14.00">city :string</text>
<text text-anchor="start" x="544" y="-256.4" font-family="Times,serif" font-size="14.00">state :string</text>
<text text-anchor="start" x="544" y="-241.4" font-family="Times,serif" font-size="14.00">zip :integer</text>
<text text-anchor="start" x="544" y="-226.4" font-family="Times,serif" font-size="14.00">email :string</text>
<text text-anchor="start" x="544" y="-211.4" font-family="Times,serif" font-size="14.00">birthdate :date</text>
<text text-anchor="start" x="544" y="-196.4" font-family="Times,serif" font-size="14.00">additional_notes :text</text>
<text text-anchor="start" x="544" y="-181.4" font-family="Times,serif" font-size="14.00">sticky_listing :boolean</text>
<text text-anchor="start" x="544" y="-166.4" font-family="Times,serif" font-size="14.00">do_not_disturb :boolean</text>
<text text-anchor="start" x="544" y="-151.4" font-family="Times,serif" font-size="14.00">created_at :datetime</text>
<text text-anchor="start" x="544" y="-136.4" font-family="Times,serif" font-size="14.00">updated_at :datetime</text>
<text text-anchor="start" x="544" y="-121.4" font-family="Times,serif" font-size="14.00">days_carry_forward :integer</text>
</g>
<!-- Rank&#45;&gt;Student -->
<g id="edge2" class="edge"><title>Rank&#45;&gt;Student</title>
<path fill="none" stroke="#543726" d="M625,-430.485C625,-424.4 625,-418.095 625,-411.654"/>
<ellipse fill="none" stroke="#543726" cx="625" cy="-434.497" rx="4" ry="4"/>
<polygon fill="#543726" stroke="#543726" points="625,-411.43 629.5,-401.43 625,-406.43 625,-401.43 625,-401.43 625,-401.43 625,-406.43 620.5,-401.43 625,-411.43 625,-411.43"/>
</g>
<!-- Student&#45;&gt;Note -->
<g id="edge4" class="edge"><title>Student&#45;&gt;Note</title>
<path fill="none" stroke="#f86d7e" d="M572.736,-107.399C570.273,-100.3 567.903,-93.4708 565.677,-87.0575"/>
<ellipse fill="none" stroke="#f86d7e" cx="574.056" cy="-111.202" rx="4.00001" ry="4.00001"/>
<polygon fill="#f86d7e" stroke="#f86d7e" points="565.585,-86.7899 566.557,-75.8673 563.945,-82.0663 562.306,-77.3426 562.306,-77.3426 562.306,-77.3426 563.945,-82.0663 558.055,-78.818 565.585,-86.7899 565.585,-86.7899"/>
</g>
<!-- YearEndReview -->
<g id="node8" class="node"><title>YearEndReview</title>
<polyline fill="none" stroke="black" points="645.5,-1 756.5,-1 "/>
<path fill="none" stroke="black" d="M756.5,-1C762.5,-1 768.5,-7 768.5,-13"/>
<polyline fill="none" stroke="black" points="768.5,-13 768.5,-65 "/>
<path fill="none" stroke="black" d="M768.5,-65C768.5,-71 762.5,-77 756.5,-77"/>
<polyline fill="none" stroke="black" points="756.5,-77 645.5,-77 "/>
<path fill="none" stroke="black" d="M645.5,-77C639.5,-77 633.5,-71 633.5,-65"/>
<polyline fill="none" stroke="black" points="633.5,-65 633.5,-13 "/>
<path fill="none" stroke="black" d="M633.5,-13C633.5,-7 639.5,-1 645.5,-1"/>
<text text-anchor="middle" x="701" y="-60.4" font-family="Times,serif" font-size="14.00">YearEndReview</text>
<polyline fill="none" stroke="black" points="633.5,-54 768.5,-54 "/>
<text text-anchor="start" x="641.5" y="-37.4" font-family="Times,serif" font-size="14.00">note :text</text>
<text text-anchor="start" x="641.5" y="-22.4" font-family="Times,serif" font-size="14.00">created_at :datetime</text>
<text text-anchor="start" x="641.5" y="-7.4" font-family="Times,serif" font-size="14.00">updated_at :datetime</text>
</g>
<!-- Student&#45;&gt;YearEndReview -->
<g id="edge6" class="edge"><title>Student&#45;&gt;YearEndReview</title>
<path fill="none" stroke="#83e5dd" d="M677.264,-107.399C679.727,-100.3 682.097,-93.4708 684.323,-87.0575"/>
<ellipse fill="none" stroke="#83e5dd" cx="675.944" cy="-111.202" rx="4.00001" ry="4.00001"/>
<polygon fill="#83e5dd" stroke="#83e5dd" points="684.415,-86.7899 691.945,-78.818 686.055,-82.0663 687.694,-77.3426 687.694,-77.3426 687.694,-77.3426 686.055,-82.0663 683.443,-75.8673 684.415,-86.7899 684.415,-86.7899"/>
</g>
<!-- Test -->
<g id="node7" class="node"><title>Test</title>
<polyline fill="none" stroke="black" points="739.5,-461 850.5,-461 "/>
<path fill="none" stroke="black" d="M850.5,-461C856.5,-461 862.5,-467 862.5,-473"/>
<polyline fill="none" stroke="black" points="862.5,-473 862.5,-525 "/>
<path fill="none" stroke="black" d="M862.5,-525C862.5,-531 856.5,-537 850.5,-537"/>
<polyline fill="none" stroke="black" points="850.5,-537 739.5,-537 "/>
<path fill="none" stroke="black" d="M739.5,-537C733.5,-537 727.5,-531 727.5,-525"/>
<polyline fill="none" stroke="black" points="727.5,-525 727.5,-473 "/>
<path fill="none" stroke="black" d="M727.5,-473C727.5,-467 733.5,-461 739.5,-461"/>
<text text-anchor="middle" x="795" y="-520.4" font-family="Times,serif" font-size="14.00">Test</text>
<polyline fill="none" stroke="black" points="727.5,-514 862.5,-514 "/>
<text text-anchor="start" x="735.5" y="-497.4" font-family="Times,serif" font-size="14.00">date :date</text>
<text text-anchor="start" x="735.5" y="-482.4" font-family="Times,serif" font-size="14.00">created_at :datetime</text>
<text text-anchor="start" x="735.5" y="-467.4" font-family="Times,serif" font-size="14.00">updated_at :datetime</text>
</g>
</g>
</svg>
