<?xml version="1.0" encoding="UTF-8" standalone="no"?>
<!DOCTYPE svg PUBLIC "-//W3C//DTD SVG 1.1//EN"
 "http://www.w3.org/Graphics/SVG/1.1/DTD/svg11.dtd">
<!-- Generated by graphviz version 2.26.3 (20100126.1600)
 -->
<!-- Title: models_diagram Pages: 1 -->
<svg width="610pt" height="230pt"
 viewBox="0.00 0.00 610.00 230.00" xmlns="http://www.w3.org/2000/svg" xmlns:xlink="http://www.w3.org/1999/xlink">
<g id="graph1" class="graph" transform="scale(1 1) rotate(0) translate(4 226)">
<title>models_diagram</title>
<polygon fill="white" stroke="white" points="-4,5 -4,-226 607,-226 607,5 -4,5"/>
<!-- _diagram_info -->
<g id="node1" class="node"><title>_diagram_info</title>
<text text-anchor="start" x="8" y="-206.3" font-family="Times,serif" font-size="13.00">Models diagram</text>
<text text-anchor="start" x="8" y="-192.3" font-family="Times,serif" font-size="13.00">Date: Feb 11 2011 &#45; 09:16</text>
<text text-anchor="start" x="8" y="-178.3" font-family="Times,serif" font-size="13.00">Migration version: 20110112004240</text>
<text text-anchor="start" x="8" y="-164.3" font-family="Times,serif" font-size="13.00">Generated by RailRoady 1.0.1</text>
<text text-anchor="start" x="8" y="-150.3" font-family="Times,serif" font-size="13.00">http://railroady.prestonlee.com</text>
</g>
<!-- Attendance -->
<g id="node2" class="node"><title>Attendance</title>
<ellipse fill="none" stroke="black" cx="276" cy="-183" rx="52.1439" ry="18"/>
<text text-anchor="middle" x="276" y="-177.9" font-family="Times,serif" font-size="14.00">Attendance</text>
</g>
<!-- Library -->
<g id="node3" class="node"><title>Library</title>
<ellipse fill="none" stroke="black" cx="385" cy="-183" rx="39.1446" ry="18"/>
<text text-anchor="middle" x="385" y="-177.9" font-family="Times,serif" font-size="14.00">Library</text>
</g>
<!-- Note -->
<g id="node4" class="node"><title>Note</title>
<ellipse fill="none" stroke="black" cx="414" cy="-18" rx="28.0958" ry="18"/>
<text text-anchor="middle" x="414" y="-12.9" font-family="Times,serif" font-size="14.00">Note</text>
</g>
<!-- Rank -->
<g id="node5" class="node"><title>Rank</title>
<ellipse fill="none" stroke="black" cx="472" cy="-183" rx="30.0465" ry="18"/>
<text text-anchor="middle" x="472" y="-177.9" font-family="Times,serif" font-size="14.00">Rank</text>
</g>
<!-- Student -->
<g id="node6" class="node"><title>Student</title>
<ellipse fill="none" stroke="black" cx="472" cy="-90" rx="39.1446" ry="18"/>
<text text-anchor="middle" x="472" y="-84.9" font-family="Times,serif" font-size="14.00">Student</text>
</g>
<!-- Rank&#45;&gt;Student -->
<g id="edge2" class="edge"><title>Rank&#45;&gt;Student</title>
<path fill="none" stroke="black" d="M472,-156.443C472,-144.448 472,-130.268 472,-118.095"/>
<ellipse fill="none" stroke="black" cx="472" cy="-160.626" rx="4" ry="4"/>
<polygon fill="black" stroke="black" points="472,-118.019 476.5,-108.019 472,-113.019 472,-108.019 472,-108.019 472,-108.019 472,-113.019 467.5,-108.019 472,-118.019 472,-118.019"/>
</g>
<!-- Student&#45;&gt;Note -->
<g id="edge4" class="edge"><title>Student&#45;&gt;Note</title>
<path fill="none" stroke="black" d="M453.185,-66.644C446.968,-58.9255 440.035,-50.3188 433.749,-42.5161"/>
<ellipse fill="none" stroke="black" cx="455.745" cy="-69.822" rx="4.00002" ry="4.00002"/>
<polygon fill="black" stroke="black" points="433.521,-42.2325 430.752,-31.6219 430.384,-38.3387 427.247,-34.4449 427.247,-34.4449 427.247,-34.4449 430.384,-38.3387 423.743,-37.2679 433.521,-42.2325 433.521,-42.2325"/>
</g>
<!-- YearEndReview -->
<g id="node8" class="node"><title>YearEndReview</title>
<ellipse fill="none" stroke="black" cx="531" cy="-18" rx="70.9937" ry="18"/>
<text text-anchor="middle" x="531" y="-12.9" font-family="Times,serif" font-size="14.00">YearEndReview</text>
</g>
<!-- Student&#45;&gt;YearEndReview -->
<g id="edge6" class="edge"><title>Student&#45;&gt;YearEndReview</title>
<path fill="none" stroke="black" d="M491.183,-66.5908C497.227,-59.2144 503.933,-51.031 510.091,-43.5156"/>
<ellipse fill="none" stroke="black" cx="488.517" cy="-69.8431" rx="4.00002" ry="4.00002"/>
<polygon fill="black" stroke="black" points="510.164,-43.4272 519.983,-38.5446 513.333,-39.5598 516.502,-35.6924 516.502,-35.6924 516.502,-35.6924 513.333,-39.5598 513.021,-32.8402 510.164,-43.4272 510.164,-43.4272"/>
</g>
<!-- Test -->
<g id="node7" class="node"><title>Test</title>
<ellipse fill="none" stroke="black" cx="547" cy="-183" rx="27" ry="18"/>
<text text-anchor="middle" x="547" y="-177.9" font-family="Times,serif" font-size="14.00">Test</text>
</g>
</g>
</svg>
