<?xml version="1.0" encoding="UTF-8" standalone="no"?>
<!DOCTYPE svg PUBLIC "-//W3C//DTD SVG 1.1//EN"
 "http://www.w3.org/Graphics/SVG/1.1/DTD/svg11.dtd">
<!-- Generated by graphviz version 2.26.3 (20100126.1600)
 -->
<!-- Title: models_diagram Pages: 1 -->
<svg width="834pt" height="538pt"
 viewBox="0.00 0.00 834.00 538.00" xmlns="http://www.w3.org/2000/svg" xmlns:xlink="http://www.w3.org/1999/xlink">
<g id="graph1" class="graph" transform="scale(1 1) rotate(0) translate(4 534)">
<title>models_diagram</title>
<polygon fill="white" stroke="white" points="-4,5 -4,-534 831,-534 831,5 -4,5"/>
<!-- _diagram_info -->
<g id="node1" class="node"><title>_diagram_info</title>
<text text-anchor="start" x="8" y="-499.3" font-family="Times,serif" font-size="13.00">Models diagram</text>
<text text-anchor="start" x="8" y="-485.3" font-family="Times,serif" font-size="13.00">Date: Feb 11 2011 &#45; 09:16</text>
<text text-anchor="start" x="8" y="-471.3" font-family="Times,serif" font-size="13.00">Migration version: 20110112004240</text>
<text text-anchor="start" x="8" y="-457.3" font-family="Times,serif" font-size="13.00">Generated by RailRoady 1.0.1</text>
<text text-anchor="start" x="8" y="-443.3" font-family="Times,serif" font-size="13.00">http://railroady.prestonlee.com</text>
</g>
<!-- Attendance -->
<g id="node2" class="node"><title>Attendance</title>
<polyline fill="none" stroke="black" points="235.5,-438 346.5,-438 "/>
<path fill="none" stroke="black" d="M346.5,-438C352.5,-438 358.5,-444 358.5,-450"/>
<polyline fill="none" stroke="black" points="358.5,-450 358.5,-502 "/>
<path fill="none" stroke="black" d="M358.5,-502C358.5,-508 352.5,-514 346.5,-514"/>
<polyline fill="none" stroke="black" points="346.5,-514 235.5,-514 "/>
<path fill="none" stroke="black" d="M235.5,-514C229.5,-514 223.5,-508 223.5,-502"/>
<polyline fill="none" stroke="black" points="223.5,-502 223.5,-450 "/>
<path fill="none" stroke="black" d="M223.5,-450C223.5,-444 229.5,-438 235.5,-438"/>
<text text-anchor="middle" x="291" y="-497.4" font-family="Times,serif" font-size="14.00">Attendance</text>
<polyline fill="none" stroke="black" points="223.5,-491 358.5,-491 "/>
<text text-anchor="start" x="231.5" y="-474.4" font-family="Times,serif" font-size="14.00">date :date</text>
<text text-anchor="start" x="231.5" y="-459.4" font-family="Times,serif" font-size="14.00">created_at :datetime</text>
<text text-anchor="start" x="231.5" y="-444.4" font-family="Times,serif" font-size="14.00">updated_at :datetime</text>
</g>
<!-- Library -->
<g id="node3" class="node"><title>Library</title>
<polyline fill="none" stroke="black" points="387.5,-438 498.5,-438 "/>
<path fill="none" stroke="black" d="M498.5,-438C504.5,-438 510.5,-444 510.5,-450"/>
<polyline fill="none" stroke="black" points="510.5,-450 510.5,-502 "/>
<path fill="none" stroke="black" d="M510.5,-502C510.5,-508 504.5,-514 498.5,-514"/>
<polyline fill="none" stroke="black" points="498.5,-514 387.5,-514 "/>
<path fill="none" stroke="black" d="M387.5,-514C381.5,-514 375.5,-508 375.5,-502"/>
<polyline fill="none" stroke="black" points="375.5,-502 375.5,-450 "/>
<path fill="none" stroke="black" d="M375.5,-450C375.5,-444 381.5,-438 387.5,-438"/>
<text text-anchor="middle" x="443" y="-497.4" font-family="Times,serif" font-size="14.00">Library</text>
<polyline fill="none" stroke="black" points="375.5,-491 510.5,-491 "/>
<text text-anchor="start" x="383.5" y="-474.4" font-family="Times,serif" font-size="14.00">item :string</text>
<text text-anchor="start" x="383.5" y="-459.4" font-family="Times,serif" font-size="14.00">created_at :datetime</text>
<text text-anchor="start" x="383.5" y="-444.4" font-family="Times,serif" font-size="14.00">updated_at :datetime</text>
</g>
<!-- Note -->
<g id="node4" class="node"><title>Note</title>
<polyline fill="none" stroke="black" points="469.5,-1 580.5,-1 "/>
<path fill="none" stroke="black" d="M580.5,-1C586.5,-1 592.5,-7 592.5,-13"/>
<polyline fill="none" stroke="black" points="592.5,-13 592.5,-65 "/>
<path fill="none" stroke="black" d="M592.5,-65C592.5,-71 586.5,-77 580.5,-77"/>
<polyline fill="none" stroke="black" points="580.5,-77 469.5,-77 "/>
<path fill="none" stroke="black" d="M469.5,-77C463.5,-77 457.5,-71 457.5,-65"/>
<polyline fill="none" stroke="black" points="457.5,-65 457.5,-13 "/>
<path fill="none" stroke="black" d="M457.5,-13C457.5,-7 463.5,-1 469.5,-1"/>
<text text-anchor="middle" x="525" y="-60.4" font-family="Times,serif" font-size="14.00">Note</text>
<polyline fill="none" stroke="black" points="457.5,-54 592.5,-54 "/>
<text text-anchor="start" x="465.5" y="-37.4" font-family="Times,serif" font-size="14.00">note :text</text>
<text text-anchor="start" x="465.5" y="-22.4" font-family="Times,serif" font-size="14.00">created_at :datetime</text>
<text text-anchor="start" x="465.5" y="-7.4" font-family="Times,serif" font-size="14.00">updated_at :datetime</text>
</g>
<!-- Rank -->
<g id="node5" class="node"><title>Rank</title>
<polyline fill="none" stroke="black" points="540,-423 662,-423 "/>
<path fill="none" stroke="black" d="M662,-423C668,-423 674,-429 674,-435"/>
<polyline fill="none" stroke="black" points="674,-435 674,-517 "/>
<path fill="none" stroke="black" d="M674,-517C674,-523 668,-529 662,-529"/>
<polyline fill="none" stroke="black" points="662,-529 540,-529 "/>
<path fill="none" stroke="black" d="M540,-529C534,-529 528,-523 528,-517"/>
<polyline fill="none" stroke="black" points="528,-517 528,-435 "/>
<path fill="none" stroke="black" d="M528,-435C528,-429 534,-423 540,-423"/>
<text text-anchor="middle" x="601" y="-512.4" font-family="Times,serif" font-size="14.00">Rank</text>
<polyline fill="none" stroke="black" points="528,-506 674,-506 "/>
<text text-anchor="start" x="536" y="-489.4" font-family="Times,serif" font-size="14.00">order :integer</text>
<text text-anchor="start" x="536" y="-474.4" font-family="Times,serif" font-size="14.00">name :string</text>
<text text-anchor="start" x="536" y="-459.4" font-family="Times,serif" font-size="14.00">days_required :integer</text>
<text text-anchor="start" x="536" y="-444.4" font-family="Times,serif" font-size="14.00">created_at :datetime</text>
<text text-anchor="start" x="536" y="-429.4" font-family="Times,serif" font-size="14.00">updated_at :datetime</text>
</g>
<!-- Student -->
<g id="node6" class="node"><title>Student</title>
<polyline fill="none" stroke="black" points="533.5,-114.5 668.5,-114.5 "/>
<path fill="none" stroke="black" d="M668.5,-114.5C674.5,-114.5 680.5,-120.5 680.5,-126.5"/>
<polyline fill="none" stroke="black" points="680.5,-126.5 680.5,-373.5 "/>
<path fill="none" stroke="black" d="M680.5,-373.5C680.5,-379.5 674.5,-385.5 668.5,-385.5"/>
<polyline fill="none" stroke="black" points="668.5,-385.5 533.5,-385.5 "/>
<path fill="none" stroke="black" d="M533.5,-385.5C527.5,-385.5 521.5,-379.5 521.5,-373.5"/>
<polyline fill="none" stroke="black" points="521.5,-373.5 521.5,-126.5 "/>
<path fill="none" stroke="black" d="M521.5,-126.5C521.5,-120.5 527.5,-114.5 533.5,-114.5"/>
<text text-anchor="middle" x="601" y="-368.9" font-family="Times,serif" font-size="14.00">Student</text>
<polyline fill="none" stroke="black" points="521.5,-362.5 680.5,-362.5 "/>
<text text-anchor="start" x="529.5" y="-345.9" font-family="Times,serif" font-size="14.00">firstname :string</text>
<text text-anchor="start" x="529.5" y="-330.9" font-family="Times,serif" font-size="14.00">middlename :string</text>
<text text-anchor="start" x="529.5" y="-315.9" font-family="Times,serif" font-size="14.00">lastname :string</text>
<text text-anchor="start" x="529.5" y="-300.9" font-family="Times,serif" font-size="14.00">address1 :string</text>
<text text-anchor="start" x="529.5" y="-285.9" font-family="Times,serif" font-size="14.00">address2 :string</text>
<text text-anchor="start" x="529.5" y="-270.9" font-family="Times,serif" font-size="14.00">address3 :string</text>
<text text-anchor="start" x="529.5" y="-255.9" font-family="Times,serif" font-size="14.00">city :string</text>
<text text-anchor="start" x="529.5" y="-240.9" font-family="Times,serif" font-size="14.00">state :string</text>
<text text-anchor="start" x="529.5" y="-225.9" font-family="Times,serif" font-size="14.00">zip :integer</text>
<text text-anchor="start" x="529.5" y="-210.9" font-family="Times,serif" font-size="14.00">email :string</text>
<text text-anchor="start" x="529.5" y="-195.9" font-family="Times,serif" font-size="14.00">birthdate :date</text>
<text text-anchor="start" x="529.5" y="-180.9" font-family="Times,serif" font-size="14.00">additional_notes :text</text>
<text text-anchor="start" x="529.5" y="-165.9" font-family="Times,serif" font-size="14.00">sticky_listing :boolean</text>
<text text-anchor="start" x="529.5" y="-150.9" font-family="Times,serif" font-size="14.00">do_not_disturb :boolean</text>
<text text-anchor="start" x="529.5" y="-135.9" font-family="Times,serif" font-size="14.00">created_at :datetime</text>
<text text-anchor="start" x="529.5" y="-120.9" font-family="Times,serif" font-size="14.00">updated_at :datetime</text>
</g>
<!-- Rank&#45;&gt;Student -->
<g id="edge2" class="edge"><title>Rank&#45;&gt;Student</title>
<path fill="none" stroke="black" d="M601,-414.472C601,-408.45 601,-402.18 601,-395.756"/>
<ellipse fill="none" stroke="black" cx="601" cy="-418.727" rx="4" ry="4"/>
<polygon fill="black" stroke="black" points="601,-395.547 605.5,-385.547 601,-390.547 601,-385.547 601,-385.547 601,-385.547 601,-390.547 596.5,-385.547 601,-395.547 601,-395.547"/>
</g>
<!-- Student&#45;&gt;Note -->
<g id="edge4" class="edge"><title>Student&#45;&gt;Note</title>
<path fill="none" stroke="black" d="M549.311,-106.496C546.815,-99.5662 544.41,-92.8886 542.148,-86.6076"/>
<ellipse fill="none" stroke="black" cx="550.76" cy="-110.519" rx="4.00001" ry="4.00001"/>
<polygon fill="black" stroke="black" points="542.106,-86.4928 542.951,-75.5595 540.412,-81.7887 538.718,-77.0845 538.718,-77.0845 538.718,-77.0845 540.412,-81.7887 534.484,-78.6095 542.106,-86.4928 542.106,-86.4928"/>
</g>
<!-- YearEndReview -->
<g id="node8" class="node"><title>YearEndReview</title>
<polyline fill="none" stroke="black" points="621.5,-1 732.5,-1 "/>
<path fill="none" stroke="black" d="M732.5,-1C738.5,-1 744.5,-7 744.5,-13"/>
<polyline fill="none" stroke="black" points="744.5,-13 744.5,-65 "/>
<path fill="none" stroke="black" d="M744.5,-65C744.5,-71 738.5,-77 732.5,-77"/>
<polyline fill="none" stroke="black" points="732.5,-77 621.5,-77 "/>
<path fill="none" stroke="black" d="M621.5,-77C615.5,-77 609.5,-71 609.5,-65"/>
<polyline fill="none" stroke="black" points="609.5,-65 609.5,-13 "/>
<path fill="none" stroke="black" d="M609.5,-13C609.5,-7 615.5,-1 621.5,-1"/>
<text text-anchor="middle" x="677" y="-60.4" font-family="Times,serif" font-size="14.00">YearEndReview</text>
<polyline fill="none" stroke="black" points="609.5,-54 744.5,-54 "/>
<text text-anchor="start" x="617.5" y="-37.4" font-family="Times,serif" font-size="14.00">note :text</text>
<text text-anchor="start" x="617.5" y="-22.4" font-family="Times,serif" font-size="14.00">created_at :datetime</text>
<text text-anchor="start" x="617.5" y="-7.4" font-family="Times,serif" font-size="14.00">updated_at :datetime</text>
</g>
<!-- Student&#45;&gt;YearEndReview -->
<g id="edge6" class="edge"><title>Student&#45;&gt;YearEndReview</title>
<path fill="none" stroke="black" d="M652.689,-106.496C655.185,-99.5662 657.59,-92.8886 659.852,-86.6076"/>
<ellipse fill="none" stroke="black" cx="651.24" cy="-110.519" rx="4.00001" ry="4.00001"/>
<polygon fill="black" stroke="black" points="659.894,-86.4928 667.516,-78.6095 661.588,-81.7887 663.282,-77.0845 663.282,-77.0845 663.282,-77.0845 661.588,-81.7887 659.049,-75.5595 659.894,-86.4928 659.894,-86.4928"/>
</g>
<!-- Test -->
<g id="node7" class="node"><title>Test</title>
<polyline fill="none" stroke="black" points="703.5,-438 814.5,-438 "/>
<path fill="none" stroke="black" d="M814.5,-438C820.5,-438 826.5,-444 826.5,-450"/>
<polyline fill="none" stroke="black" points="826.5,-450 826.5,-502 "/>
<path fill="none" stroke="black" d="M826.5,-502C826.5,-508 820.5,-514 814.5,-514"/>
<polyline fill="none" stroke="black" points="814.5,-514 703.5,-514 "/>
<path fill="none" stroke="black" d="M703.5,-514C697.5,-514 691.5,-508 691.5,-502"/>
<polyline fill="none" stroke="black" points="691.5,-502 691.5,-450 "/>
<path fill="none" stroke="black" d="M691.5,-450C691.5,-444 697.5,-438 703.5,-438"/>
<text text-anchor="middle" x="759" y="-497.4" font-family="Times,serif" font-size="14.00">Test</text>
<polyline fill="none" stroke="black" points="691.5,-491 826.5,-491 "/>
<text text-anchor="start" x="699.5" y="-474.4" font-family="Times,serif" font-size="14.00">date :date</text>
<text text-anchor="start" x="699.5" y="-459.4" font-family="Times,serif" font-size="14.00">created_at :datetime</text>
<text text-anchor="start" x="699.5" y="-444.4" font-family="Times,serif" font-size="14.00">updated_at :datetime</text>
</g>
</g>
</svg>
