<?xml version="1.0" encoding="UTF-8" standalone="no"?>
<!DOCTYPE svg PUBLIC "-//W3C//DTD SVG 1.1//EN"
 "http://www.w3.org/Graphics/SVG/1.1/DTD/svg11.dtd">
<!-- Generated by graphviz version 2.26.3 (20100126.1600)
 -->
<!-- Title: models_diagram Pages: 1 -->
<svg width="622pt" height="230pt"
 viewBox="0.00 0.00 622.00 230.00" xmlns="http://www.w3.org/2000/svg" xmlns:xlink="http://www.w3.org/1999/xlink">
<g id="graph1" class="graph" transform="scale(1 1) rotate(0) translate(4 226)">
<title>models_diagram</title>
<polygon fill="white" stroke="white" points="-4,5 -4,-226 619,-226 619,5 -4,5"/>
<!-- _diagram_info -->
<g id="node1" class="node"><title>_diagram_info</title>
<text text-anchor="start" x="8" y="-206.3" font-family="Times,serif" font-size="13.00">Models diagram</text>
<text text-anchor="start" x="8" y="-192.3" font-family="Times,serif" font-size="13.00">Date: May 01 2012 &#45; 00:14</text>
<text text-anchor="start" x="8" y="-178.3" font-family="Times,serif" font-size="13.00">Migration version: 20110920045543</text>
<text text-anchor="start" x="8" y="-164.3" font-family="Times,serif" font-size="13.00">Generated by RailRoady 1.0.7</text>
<text text-anchor="start" x="8" y="-150.3" font-family="Times,serif" font-size="13.00">http://railroady.prestonlee.com</text>
</g>
<!-- Attendance -->
<g id="node2" class="node"><title>Attendance</title>
<ellipse fill="none" stroke="black" cx="289" cy="-183" rx="52.7972" ry="18"/>
<text text-anchor="middle" x="289" y="-177.9" font-family="Times,serif" font-size="14.00">Attendance</text>
</g>
<!-- Library -->
<g id="node3" class="node"><title>Library</title>
<ellipse fill="none" stroke="black" cx="398" cy="-183" rx="37.8486" ry="18"/>
<text text-anchor="middle" x="398" y="-177.9" font-family="Times,serif" font-size="14.00">Library</text>
</g>
<!-- Note -->
<g id="node4" class="node"><title>Note</title>
<ellipse fill="none" stroke="black" cx="424" cy="-18" rx="28.0958" ry="18"/>
<text text-anchor="middle" x="424" y="-12.9" font-family="Times,serif" font-size="14.00">Note</text>
</g>
<!-- Rank -->
<g id="node5" class="node"><title>Rank</title>
<ellipse fill="none" stroke="black" cx="483" cy="-183" rx="29.2474" ry="18"/>
<text text-anchor="middle" x="483" y="-177.9" font-family="Times,serif" font-size="14.00">Rank</text>
</g>
<!-- Student -->
<g id="node6" class="node"><title>Student</title>
<ellipse fill="none" stroke="black" cx="483" cy="-90" rx="37.8486" ry="18"/>
<text text-anchor="middle" x="483" y="-84.9" font-family="Times,serif" font-size="14.00">Student</text>
</g>
<!-- Rank&#45;&gt;Student -->
<g id="edge2" class="edge"><title>Rank&#45;&gt;Student</title>
<path fill="none" stroke="#a869e4" d="M483,-156.443C483,-144.448 483,-130.268 483,-118.095"/>
<ellipse fill="none" stroke="#a869e4" cx="483" cy="-160.626" rx="4" ry="4"/>
<polygon fill="#a869e4" stroke="#a869e4" points="483,-118.019 487.5,-108.019 483,-113.019 483,-108.019 483,-108.019 483,-108.019 483,-113.019 478.5,-108.019 483,-118.019 483,-118.019"/>
</g>
<!-- Student&#45;&gt;Note -->
<g id="edge4" class="edge"><title>Student&#45;&gt;Note</title>
<path fill="none" stroke="#b6501d" d="M463.784,-66.5504C457.295,-58.6311 450.047,-49.7856 443.533,-41.8367"/>
<ellipse fill="none" stroke="#b6501d" cx="466.483" cy="-69.8431" rx="4.00002" ry="4.00002"/>
<polygon fill="#b6501d" stroke="#b6501d" points="443.412,-41.6888 440.554,-31.1018 440.243,-37.8214 437.073,-33.954 437.073,-33.954 437.073,-33.954 440.243,-37.8214 433.593,-36.8062 443.412,-41.6888 443.412,-41.6888"/>
</g>
<!-- YearEndReview -->
<g id="node8" class="node"><title>YearEndReview</title>
<ellipse fill="none" stroke="black" cx="542" cy="-18" rx="72.1436" ry="18"/>
<text text-anchor="middle" x="542" y="-12.9" font-family="Times,serif" font-size="14.00">YearEndReview</text>
</g>
<!-- Student&#45;&gt;YearEndReview -->
<g id="edge6" class="edge"><title>Student&#45;&gt;YearEndReview</title>
<path fill="none" stroke="#0b322d" d="M502.183,-66.5908C508.227,-59.2144 514.933,-51.031 521.091,-43.5156"/>
<ellipse fill="none" stroke="#0b322d" cx="499.517" cy="-69.8431" rx="4.00002" ry="4.00002"/>
<polygon fill="#0b322d" stroke="#0b322d" points="521.164,-43.4272 530.983,-38.5446 524.333,-39.5598 527.502,-35.6924 527.502,-35.6924 527.502,-35.6924 524.333,-39.5598 524.021,-32.8402 521.164,-43.4272 521.164,-43.4272"/>
</g>
<!-- Test -->
<g id="node7" class="node"><title>Test</title>
<ellipse fill="none" stroke="black" cx="557" cy="-183" rx="27" ry="18"/>
<text text-anchor="middle" x="557" y="-177.9" font-family="Times,serif" font-size="14.00">Test</text>
</g>
</g>
</svg>
